<?xml version="1.0" encoding="utf-8"?>
<!-- Generator: Adobe Illustrator 24.3.0, SVG Export Plug-In . SVG Version: 6.00 Build 0)  -->
<svg version="1.1" id="Layer_1" xmlns="http://www.w3.org/2000/svg" xmlns:xlink="http://www.w3.org/1999/xlink" x="0px" y="0px"
	 viewBox="0 0 237.8 125" style="enable-background:new 0 0 237.8 125;" xml:space="preserve">
<style type="text/css">
	.st0{fill:url(#SVGID_1_);stroke:url(#SVGID_2_);stroke-width:0.1506;stroke-miterlimit:10;}
	.st1{fill:url(#SVGID_3_);stroke:url(#SVGID_4_);stroke-width:0.1506;stroke-miterlimit:10;}
	.st2{fill:url(#SVGID_5_);stroke:url(#SVGID_6_);stroke-width:0.1506;stroke-miterlimit:10;}
	.st3{fill:url(#SVGID_7_);}
	.st4{fill:url(#SVGID_8_);}
	.st5{fill:url(#SVGID_9_);}
	.st6{fill:url(#SVGID_10_);}
	.st7{fill:url(#SVGID_11_);}
	.st8{fill:url(#SVGID_12_);}
	.st9{fill:url(#SVGID_13_);}
	.st10{fill:url(#SVGID_14_);}
	.st11{fill:url(#SVGID_15_);}
	.st12{fill:url(#SVGID_16_);}
	.st13{fill:url(#SVGID_17_);}
	.st14{fill:url(#SVGID_18_);}
	.st15{fill:url(#SVGID_19_);}
	.st16{fill:url(#SVGID_20_);}
	.st17{fill:url(#SVGID_21_);}
	.st18{fill:url(#SVGID_22_);}
	.st19{fill:url(#SVGID_23_);}
	.st20{fill:url(#SVGID_24_);}
	.st21{fill:url(#SVGID_25_);}
	.st22{fill:url(#SVGID_26_);}
	.st23{fill:url(#SVGID_27_);}
	.st24{fill:url(#SVGID_28_);}
	.st25{fill:url(#SVGID_29_);}
	.st26{fill:url(#SVGID_30_);}
	.st27{fill:url(#SVGID_31_);}
	.st28{fill:url(#SVGID_32_);}
	.st29{fill:url(#SVGID_33_);}
	.st30{fill:url(#SVGID_34_);}
	.st31{fill:url(#SVGID_35_);}
	.st32{fill:url(#SVGID_36_);}
	.st33{fill:url(#SVGID_37_);}
	.st34{fill:url(#SVGID_38_);}
	.st35{fill:url(#SVGID_39_);}
	.st36{fill:url(#SVGID_40_);}
	.st37{fill:url(#SVGID_41_);}
	.st38{fill:url(#SVGID_42_);}
	.st39{fill:url(#SVGID_43_);}
	.st40{fill:url(#SVGID_44_);stroke:url(#SVGID_45_);stroke-width:0.1436;stroke-miterlimit:10;}
	.st41{fill:url(#SVGID_46_);stroke:url(#SVGID_47_);stroke-width:0.1436;stroke-miterlimit:10;}
	.st42{fill:url(#SVGID_48_);stroke:url(#SVGID_49_);stroke-width:0.1436;stroke-miterlimit:10;}
	.st43{fill:url(#SVGID_50_);stroke:url(#SVGID_51_);stroke-width:0.1436;stroke-miterlimit:10;}
	.st44{fill:url(#SVGID_52_);stroke:url(#SVGID_53_);stroke-width:0.1436;stroke-miterlimit:10;}
	.st45{fill:url(#SVGID_54_);stroke:url(#SVGID_55_);stroke-width:0.1436;stroke-miterlimit:10;}
	.st46{fill:url(#SVGID_56_);stroke:url(#SVGID_57_);stroke-width:0.1436;stroke-miterlimit:10;}
	.st47{fill:url(#SVGID_58_);}
	.st48{fill:url(#SVGID_59_);}
	.st49{fill:url(#SVGID_60_);}
	.st50{fill:url(#SVGID_61_);}
	.st51{fill:url(#SVGID_62_);}
	.st52{fill:url(#SVGID_63_);}
	.st53{fill:url(#SVGID_64_);}
	.st54{fill:url(#SVGID_65_);}
</style>
<g>
	<g>
		<g>
			<g>
				<linearGradient id="SVGID_1_" gradientUnits="userSpaceOnUse" x1="228.2906" y1="123.8834" x2="228.2906" y2="18.7298">
					<stop  offset="5.025130e-02" style="stop-color:#FFFFFF"/>
					<stop  offset="0.1201" style="stop-color:#939393"/>
					<stop  offset="0.2441" style="stop-color:#F6F6F6"/>
					<stop  offset="0.5894" style="stop-color:#EEEEEE"/>
					<stop  offset="1" style="stop-color:#666666"/>
				</linearGradient>
				<linearGradient id="SVGID_2_" gradientUnits="userSpaceOnUse" x1="225.1906" y1="22.8675" x2="231.3907" y2="22.8675">
					<stop  offset="5.025130e-02" style="stop-color:#FFFFFF"/>
					<stop  offset="0.1201" style="stop-color:#939393"/>
					<stop  offset="0.2441" style="stop-color:#F6F6F6"/>
					<stop  offset="0.5894" style="stop-color:#EEEEEE"/>
					<stop  offset="1" style="stop-color:#666666"/>
				</linearGradient>
				<path class="st0" d="M229.3,19.6h-4.1v6.6h4.1c1.1,0,2-0.9,2-2v-2.6C231.3,20.4,230.4,19.6,229.3,19.6z"/>
				<linearGradient id="SVGID_3_" gradientUnits="userSpaceOnUse" x1="228.2906" y1="123.8834" x2="228.2906" y2="18.7298">
					<stop  offset="5.025130e-02" style="stop-color:#FFFFFF"/>
					<stop  offset="0.1201" style="stop-color:#939393"/>
					<stop  offset="0.2441" style="stop-color:#F6F6F6"/>
					<stop  offset="0.5894" style="stop-color:#EEEEEE"/>
					<stop  offset="1" style="stop-color:#666666"/>
				</linearGradient>
				<linearGradient id="SVGID_4_" gradientUnits="userSpaceOnUse" x1="225.1906" y1="67.2029" x2="231.3907" y2="67.2029">
					<stop  offset="5.025130e-02" style="stop-color:#FFFFFF"/>
					<stop  offset="0.1201" style="stop-color:#939393"/>
					<stop  offset="0.2441" style="stop-color:#F6F6F6"/>
					<stop  offset="0.5894" style="stop-color:#EEEEEE"/>
					<stop  offset="1" style="stop-color:#666666"/>
				</linearGradient>
				<path class="st1" d="M229.3,63.9h-4.1v6.6h4.1c1.1,0,2-0.9,2-2v-2.6C231.3,64.8,230.4,63.9,229.3,63.9z"/>
				<linearGradient id="SVGID_5_" gradientUnits="userSpaceOnUse" x1="228.2906" y1="123.8834" x2="228.2906" y2="18.7298">
					<stop  offset="5.025130e-02" style="stop-color:#FFFFFF"/>
					<stop  offset="0.1201" style="stop-color:#939393"/>
					<stop  offset="0.2441" style="stop-color:#F6F6F6"/>
					<stop  offset="0.5894" style="stop-color:#EEEEEE"/>
					<stop  offset="1" style="stop-color:#666666"/>
				</linearGradient>
				<linearGradient id="SVGID_6_" gradientUnits="userSpaceOnUse" x1="225.1906" y1="44.8428" x2="231.3907" y2="44.8428">
					<stop  offset="5.025130e-02" style="stop-color:#FFFFFF"/>
					<stop  offset="0.1201" style="stop-color:#939393"/>
					<stop  offset="0.2441" style="stop-color:#F6F6F6"/>
					<stop  offset="0.5894" style="stop-color:#EEEEEE"/>
					<stop  offset="1" style="stop-color:#666666"/>
				</linearGradient>
				<path class="st2" d="M229.3,27.7h-4.1V62h4.1c1.1,0,2-0.9,2-2V29.7C231.3,28.6,230.4,27.7,229.3,27.7z"/>
			</g>
			<g>
				<g>
					<g>
						<linearGradient id="SVGID_7_" gradientUnits="userSpaceOnUse" x1="103.2563" y1="71.287" x2="103.2563" y2="103.7141">
							<stop  offset="0" style="stop-color:#1F4206"/>
							<stop  offset="1" style="stop-color:#C2FF0A"/>
						</linearGradient>
						<rect x="102.2" y="88.2" class="st3" width="2.2" height="5.9"/>
						<linearGradient id="SVGID_8_" gradientUnits="userSpaceOnUse" x1="107.5425" y1="71.287" x2="107.5425" y2="103.7141">
							<stop  offset="0" style="stop-color:#1F4206"/>
							<stop  offset="1" style="stop-color:#C2FF0A"/>
						</linearGradient>
						<rect x="106.4" y="88.2" class="st4" width="2.2" height="5.9"/>
						<linearGradient id="SVGID_9_" gradientUnits="userSpaceOnUse" x1="111.8288" y1="71.287" x2="111.8288" y2="103.7141">
							<stop  offset="0" style="stop-color:#1F4206"/>
							<stop  offset="1" style="stop-color:#C2FF0A"/>
						</linearGradient>
						<rect x="110.7" y="88.2" class="st5" width="2.2" height="5.9"/>
						<linearGradient id="SVGID_10_" gradientUnits="userSpaceOnUse" x1="116.115" y1="71.287" x2="116.115" y2="103.7141">
							<stop  offset="0" style="stop-color:#1F4206"/>
							<stop  offset="1" style="stop-color:#C2FF0A"/>
						</linearGradient>
						<rect x="115" y="88.2" class="st6" width="2.2" height="5.9"/>
						<linearGradient id="SVGID_11_" gradientUnits="userSpaceOnUse" x1="120.4013" y1="71.287" x2="120.4013" y2="103.7141">
							<stop  offset="0" style="stop-color:#1F4206"/>
							<stop  offset="1" style="stop-color:#C2FF0A"/>
						</linearGradient>
						<rect x="119.3" y="88.2" class="st7" width="2.2" height="5.9"/>
						<linearGradient id="SVGID_12_" gradientUnits="userSpaceOnUse" x1="124.6875" y1="71.287" x2="124.6875" y2="103.7141">
							<stop  offset="0" style="stop-color:#1F4206"/>
							<stop  offset="1" style="stop-color:#C2FF0A"/>
						</linearGradient>
						<rect x="123.6" y="88.2" class="st8" width="2.2" height="5.9"/>
						<linearGradient id="SVGID_13_" gradientUnits="userSpaceOnUse" x1="128.9737" y1="71.287" x2="128.9737" y2="103.7141">
							<stop  offset="0" style="stop-color:#1F4206"/>
							<stop  offset="1" style="stop-color:#C2FF0A"/>
						</linearGradient>
						<rect x="127.9" y="88.2" class="st9" width="2.2" height="5.9"/>
						<linearGradient id="SVGID_14_" gradientUnits="userSpaceOnUse" x1="133.26" y1="71.287" x2="133.26" y2="103.7141">
							<stop  offset="0" style="stop-color:#1F4206"/>
							<stop  offset="1" style="stop-color:#C2FF0A"/>
						</linearGradient>
						<rect x="132.2" y="88.2" class="st10" width="2.2" height="5.9"/>
						<linearGradient id="SVGID_15_" gradientUnits="userSpaceOnUse" x1="137.5462" y1="71.287" x2="137.5462" y2="103.7141">
							<stop  offset="0" style="stop-color:#1F4206"/>
							<stop  offset="1" style="stop-color:#C2FF0A"/>
						</linearGradient>
						<rect x="136.4" y="88.2" class="st11" width="2.2" height="5.9"/>
						<linearGradient id="SVGID_16_" gradientUnits="userSpaceOnUse" x1="141.8325" y1="71.287" x2="141.8325" y2="103.7141">
							<stop  offset="0" style="stop-color:#1F4206"/>
							<stop  offset="1" style="stop-color:#C2FF0A"/>
						</linearGradient>
						<rect x="140.7" y="88.2" class="st12" width="2.2" height="5.9"/>
						<linearGradient id="SVGID_17_" gradientUnits="userSpaceOnUse" x1="146.1187" y1="71.287" x2="146.1187" y2="103.7141">
							<stop  offset="0" style="stop-color:#1F4206"/>
							<stop  offset="1" style="stop-color:#C2FF0A"/>
						</linearGradient>
						<rect x="145" y="88.2" class="st13" width="2.2" height="5.9"/>
						<linearGradient id="SVGID_18_" gradientUnits="userSpaceOnUse" x1="150.405" y1="71.287" x2="150.405" y2="103.7141">
							<stop  offset="0" style="stop-color:#1F4206"/>
							<stop  offset="1" style="stop-color:#C2FF0A"/>
						</linearGradient>
						<rect x="149.3" y="88.2" class="st14" width="2.2" height="5.9"/>
						<linearGradient id="SVGID_19_" gradientUnits="userSpaceOnUse" x1="154.6912" y1="71.287" x2="154.6912" y2="103.7141">
							<stop  offset="0" style="stop-color:#1F4206"/>
							<stop  offset="1" style="stop-color:#C2FF0A"/>
						</linearGradient>
						<rect x="153.6" y="88.2" class="st15" width="2.2" height="5.9"/>
						<linearGradient id="SVGID_20_" gradientUnits="userSpaceOnUse" x1="158.9775" y1="71.287" x2="158.9775" y2="103.7141">
							<stop  offset="0" style="stop-color:#1F4206"/>
							<stop  offset="1" style="stop-color:#C2FF0A"/>
						</linearGradient>
						<rect x="157.9" y="88.2" class="st16" width="2.2" height="5.9"/>
						<linearGradient id="SVGID_21_" gradientUnits="userSpaceOnUse" x1="163.2637" y1="71.287" x2="163.2637" y2="103.7141">
							<stop  offset="0" style="stop-color:#1F4206"/>
							<stop  offset="1" style="stop-color:#C2FF0A"/>
						</linearGradient>
						<rect x="162.2" y="88.2" class="st17" width="2.2" height="5.9"/>
						<linearGradient id="SVGID_22_" gradientUnits="userSpaceOnUse" x1="167.5499" y1="71.287" x2="167.5499" y2="103.7141">
							<stop  offset="0" style="stop-color:#1F4206"/>
							<stop  offset="1" style="stop-color:#C2FF0A"/>
						</linearGradient>
						<rect x="166.4" y="88.2" class="st18" width="2.2" height="5.9"/>
						<linearGradient id="SVGID_23_" gradientUnits="userSpaceOnUse" x1="171.8362" y1="71.287" x2="171.8362" y2="103.7141">
							<stop  offset="0" style="stop-color:#1F4206"/>
							<stop  offset="1" style="stop-color:#C2FF0A"/>
						</linearGradient>
						<rect x="170.7" y="88.2" class="st19" width="2.2" height="5.9"/>
						<linearGradient id="SVGID_24_" gradientUnits="userSpaceOnUse" x1="176.1225" y1="71.287" x2="176.1225" y2="103.7141">
							<stop  offset="0" style="stop-color:#1F4206"/>
							<stop  offset="1" style="stop-color:#C2FF0A"/>
						</linearGradient>
						<rect x="175" y="88.2" class="st20" width="2.2" height="5.9"/>
						<linearGradient id="SVGID_25_" gradientUnits="userSpaceOnUse" x1="180.4087" y1="71.287" x2="180.4087" y2="103.7141">
							<stop  offset="0" style="stop-color:#1F4206"/>
							<stop  offset="1" style="stop-color:#C2FF0A"/>
						</linearGradient>
						<rect x="179.3" y="88.2" class="st21" width="2.2" height="5.9"/>
						<linearGradient id="SVGID_26_" gradientUnits="userSpaceOnUse" x1="184.6949" y1="71.287" x2="184.6949" y2="103.7141">
							<stop  offset="0" style="stop-color:#1F4206"/>
							<stop  offset="1" style="stop-color:#C2FF0A"/>
						</linearGradient>
						<rect x="183.6" y="88.2" class="st22" width="2.2" height="5.9"/>
						<linearGradient id="SVGID_27_" gradientUnits="userSpaceOnUse" x1="188.9812" y1="71.287" x2="188.9812" y2="103.7141">
							<stop  offset="0" style="stop-color:#1F4206"/>
							<stop  offset="1" style="stop-color:#C2FF0A"/>
						</linearGradient>
						<rect x="187.9" y="88.2" class="st23" width="2.2" height="5.9"/>
						<linearGradient id="SVGID_28_" gradientUnits="userSpaceOnUse" x1="193.2674" y1="71.287" x2="193.2674" y2="103.7141">
							<stop  offset="0" style="stop-color:#1F4206"/>
							<stop  offset="1" style="stop-color:#C2FF0A"/>
						</linearGradient>
						<rect x="192.2" y="88.2" class="st24" width="2.2" height="5.9"/>
						<linearGradient id="SVGID_29_" gradientUnits="userSpaceOnUse" x1="197.5537" y1="71.287" x2="197.5537" y2="103.7141">
							<stop  offset="0" style="stop-color:#1F4206"/>
							<stop  offset="1" style="stop-color:#C2FF0A"/>
						</linearGradient>
						<rect x="196.5" y="88.2" class="st25" width="2.2" height="5.9"/>
						<linearGradient id="SVGID_30_" gradientUnits="userSpaceOnUse" x1="71.6847" y1="71.287" x2="71.6847" y2="103.7141">
							<stop  offset="0" style="stop-color:#1F4206"/>
							<stop  offset="1" style="stop-color:#C2FF0A"/>
						</linearGradient>
						<rect x="70.6" y="88.2" class="st26" width="2.2" height="5.9"/>
						<linearGradient id="SVGID_31_" gradientUnits="userSpaceOnUse" x1="56.6213" y1="71.287" x2="56.6213" y2="103.7142">
							<stop  offset="0" style="stop-color:#1F4206"/>
							<stop  offset="1" style="stop-color:#C2FF0A"/>
						</linearGradient>
						<polygon class="st27" points="60,88.2 56.7,88.2 56.7,91.1 53.3,91.1 53.3,94.1 60,94.1 60,91.1 60,91.1 						"/>
						<linearGradient id="SVGID_32_" gradientUnits="userSpaceOnUse" x1="75.971" y1="71.287" x2="75.971" y2="103.7141">
							<stop  offset="0" style="stop-color:#1F4206"/>
							<stop  offset="1" style="stop-color:#C2FF0A"/>
						</linearGradient>
						<rect x="74.9" y="88.2" class="st28" width="2.2" height="5.9"/>
						<linearGradient id="SVGID_33_" gradientUnits="userSpaceOnUse" x1="80.2573" y1="71.287" x2="80.2573" y2="103.7141">
							<stop  offset="0" style="stop-color:#1F4206"/>
							<stop  offset="1" style="stop-color:#C2FF0A"/>
						</linearGradient>
						<rect x="79.2" y="88.2" class="st29" width="2.2" height="5.9"/>
						<linearGradient id="SVGID_34_" gradientUnits="userSpaceOnUse" x1="84.5435" y1="71.287" x2="84.5435" y2="103.7141">
							<stop  offset="0" style="stop-color:#1F4206"/>
							<stop  offset="1" style="stop-color:#C2FF0A"/>
						</linearGradient>
						<rect x="83.4" y="88.2" class="st30" width="2.2" height="5.9"/>
						<linearGradient id="SVGID_35_" gradientUnits="userSpaceOnUse" x1="88.8298" y1="71.287" x2="88.8298" y2="103.7141">
							<stop  offset="0" style="stop-color:#1F4206"/>
							<stop  offset="1" style="stop-color:#C2FF0A"/>
						</linearGradient>
						<rect x="87.7" y="88.2" class="st31" width="2.2" height="5.9"/>
					</g>
					<g>
						<linearGradient id="SVGID_36_" gradientUnits="userSpaceOnUse" x1="0" y1="48.3418" x2="240.4128" y2="48.3418">
							<stop  offset="5.025130e-02" style="stop-color:#FFFFFF"/>
							<stop  offset="0.1201" style="stop-color:#939393"/>
							<stop  offset="0.2441" style="stop-color:#F6F6F6"/>
							<stop  offset="0.5894" style="stop-color:#EEEEEE"/>
							<stop  offset="1" style="stop-color:#666666"/>
						</linearGradient>
						<path class="st32" d="M222.6,0C218.3,0,56.8,0,49.3,0v8.1h164.1v40.5c0,17.6-14.8,31.9-33,31.9H47c-10.3,0-19.7-4.1-26.4-10.6
							c-6.8-6.5-11-15.6-11-25.6c0-20,16.7-36.2,37.4-36.2h2.6V0c-2.2,0-4.2,0-5.9,0C38.8,0,33.1,0.4,28,2.4
							C3.4,12.4-7.2,41.4,5.2,64.7c8,15,20.6,22.9,37.6,23.6c3.6,0.2,175.7,0.1,180,0.1v8.4h2.5V4.8h0.7V4.7h11.8V0
							C233,0,227.4,0,222.6,0z M218.5,80.5h-14.2c6.9-4.5,11.9-10.9,14.2-17.9V80.5z"/>
						<linearGradient id="SVGID_37_" gradientUnits="userSpaceOnUse" x1="-0.4914" y1="44.1622" x2="218.7441" y2="44.1622">
							<stop  offset="5.025130e-02" style="stop-color:#FFFFFF"/>
							<stop  offset="0.1201" style="stop-color:#939393"/>
							<stop  offset="0.2441" style="stop-color:#F6F6F6"/>
							<stop  offset="0.5894" style="stop-color:#EEEEEE"/>
							<stop  offset="1" style="stop-color:#666666"/>
						</linearGradient>
						<path class="st33" d="M222.6,1.8c-3.8,0-169.4,0-175.7,0v4.6h168.2v42.2c0,18.6-15.6,33.7-34.7,33.7H47
							c-10.4,0-20.3-3.9-27.7-11.1C11.9,64,7.9,54.4,7.9,44.3C7.9,23.4,25.4,6.4,47,6.4h0.4V1.8c-1.3,0-2.6,0-3.7,0
							c-4,0-10,0.2-15.1,2.3C17.3,8.7,8.5,17.9,4.3,29.3C0.2,40.7,1.1,53.3,6.8,63.8c7.7,14.3,19.8,22,36.1,22.6
							c1,0,16.3,0.1,83.9,0.1c37.6,0,76.5,0,90.6,0l6.1,0V3h0.7V2.9H236V1.8L222.6,1.8z M220.2,82.2h-21.8l4.9-3.2
							c6.6-4.3,11.3-10.3,13.5-17l3.4,0.5V82.2z"/>
					</g>
				</g>
			</g>
		</g>
		<g>
			<g>
				<linearGradient id="SVGID_38_" gradientUnits="userSpaceOnUse" x1="216.7026" y1="4.6569" x2="21.9232" y2="56.6901">
					<stop  offset="0" style="stop-color:#1F4206"/>
					<stop  offset="1" style="stop-color:#C2FF0A"/>
				</linearGradient>
				<path class="st34" d="M61.8,37c0.8,2,1.2,4.1,1.2,6.3c0,2.1-0.4,4.2-1.1,6.1h15v8.1H55.7c-2.9,2.1-6.4,3.3-10.2,3.3
					C35.8,60.8,28,53,28,43.3c0-9.7,7.8-17.5,17.5-17.5c4.6,0,8.8,1.8,12,4.7h10.4L79,16.1H51.1c-19.3,0-33.6,11-33.6,27.4
					c0,16.2,14.3,28.4,33.6,28.4h43V37H61.8z"/>
				<linearGradient id="SVGID_39_" gradientUnits="userSpaceOnUse" x1="-189.8476" y1="130.5419" x2="366.9546" y2="-56.3344">
					<stop  offset="0" style="stop-color:#1F4206"/>
					<stop  offset="1" style="stop-color:#C2FF0A"/>
				</linearGradient>
				<path class="st35" d="M51.1,70.1c-18.2,0-31.8-11.5-31.8-26.7c0-15.1,13.1-25.6,31.8-25.6h24.3l-8.5,11h-8.8
					c-3.5-3.1-8-4.7-12.6-4.7c-10.6,0-19.3,8.6-19.3,19.2s8.6,19.2,19.3,19.2c3.9,0,7.6-1.1,10.8-3.3h22.4V47.7H64.3
					c0.3-1.4,0.5-2.9,0.5-4.3c0-1.6-0.2-3.1-0.5-4.6h28.1v31.3H51.1z"/>
				<linearGradient id="SVGID_40_" gradientUnits="userSpaceOnUse" x1="218.9731" y1="13.1562" x2="24.1937" y2="65.1895">
					<stop  offset="0" style="stop-color:#1F4206"/>
					<stop  offset="1" style="stop-color:#C2FF0A"/>
				</linearGradient>
				<path class="st36" d="M147.9,16.1H88.5L77.1,30.6h72.4c5.3,0,8.4,2.4,8.4,6.3c0,3.8-3.1,6.4-8.4,6.4h-1.9v4.2
					c0,4.2,1.1,7.2,14.3,7.8c8.6-3.3,13.3-9.8,13.3-18.3C175.3,24.6,165.2,16.1,147.9,16.1z M124.4,43.3h-22.9v28.5h17.2V57.6h7.5
					c-1.2-3-1.7-6.4-1.7-10.1V43.3z"/>
				<linearGradient id="SVGID_41_" gradientUnits="userSpaceOnUse" x1="-186.2968" y1="141.1216" x2="370.5053" y2="-45.7548">
					<stop  offset="0" style="stop-color:#1F4206"/>
					<stop  offset="1" style="stop-color:#C2FF0A"/>
				</linearGradient>
				<path class="st37" d="M103.3,70.1v-25h19.4v2.4c0,3,0.4,5.8,1.1,8.3h-6.8v14.3H103.3z M161.7,53.5c-12.3-0.6-12.3-3.1-12.3-6
					v-2.4h0.1c6.2,0,10.2-3.2,10.2-8.2c0-5-3.9-8.1-10.2-8.1H80.7l8.7-11h58.6c15.8,0,25.6,7.3,25.6,19.2
					C173.5,44.6,169.3,50.5,161.7,53.5z"/>
				<linearGradient id="SVGID_42_" gradientUnits="userSpaceOnUse" x1="224.3402" y1="33.2472" x2="29.5608" y2="85.2805">
					<stop  offset="0" style="stop-color:#1F4206"/>
					<stop  offset="1" style="stop-color:#C2FF0A"/>
				</linearGradient>
				<path class="st38" d="M204.7,16.1v31.4c0,16.8-13.6,25.3-36.8,25.3c-26.8,0-40.5-8.4-40.5-25.3V33.6h17.2v13.9
					c0,8.3,5.5,10.9,23.3,10.9c13.3,0,19.4-3.1,19.4-10.9V16.1H204.7z"/>
				<linearGradient id="SVGID_43_" gradientUnits="userSpaceOnUse" x1="-178.35" y1="164.7995" x2="378.4522" y2="-22.0769">
					<stop  offset="0" style="stop-color:#1F4206"/>
					<stop  offset="1" style="stop-color:#C2FF0A"/>
				</linearGradient>
				<path class="st39" d="M167.9,71c-26,0-38.7-7.7-38.7-23.5V35.4h13.7v12.2c0,10.7,8.8,12.7,25,12.7c9.9,0,21.2-1.4,21.2-12.7
					V17.8h13.8v29.7C202.9,67,183.9,71,167.9,71z"/>
			</g>
			<g>
				<g>
					<linearGradient id="SVGID_44_" gradientUnits="userSpaceOnUse" x1="13.8653" y1="74.0828" x2="67.5601" y2="29.3068">
						<stop  offset="5.025130e-02" style="stop-color:#FFFFFF"/>
						<stop  offset="0.1201" style="stop-color:#939393"/>
						<stop  offset="0.2441" style="stop-color:#F6F6F6"/>
						<stop  offset="0.5894" style="stop-color:#EEEEEE"/>
						<stop  offset="1" style="stop-color:#666666"/>
					</linearGradient>
					<linearGradient id="SVGID_45_" gradientUnits="userSpaceOnUse" x1="49.7964" y1="38.4943" x2="59.6223" y2="38.4943">
						<stop  offset="5.025130e-02" style="stop-color:#FFFFFF"/>
						<stop  offset="0.1201" style="stop-color:#939393"/>
						<stop  offset="0.2441" style="stop-color:#F6F6F6"/>
						<stop  offset="0.5894" style="stop-color:#EEEEEE"/>
						<stop  offset="1" style="stop-color:#666666"/>
					</linearGradient>
					<path class="st40" d="M59.5,41.5c-0.1-0.6-0.2-1.3-0.4-1.9c-0.6-2-1.5-3.8-2.9-5.4c-0.2-0.2-0.3-0.4-0.5-0.6
						c-0.2-0.2-0.4-0.2-0.6,0c-0.1,0.1-0.1,0.2-0.2,0.2c-0.5,0.9-1.1,1.8-1.7,2.6c-1,1.2-2.1,2.4-3.3,3.4c0.8,1,1.2,2.2,1.2,3.5
						c0,0.1,0,0.1,0,0.2c0.2,0,0.4,0,0.6,0c0.7,0,1.4,0,2.1-0.1c0.9-0.1,1.8-0.2,2.6-0.4c0.9-0.1,1.7-0.3,2.5-0.6
						c0.2,0,0.3-0.1,0.4-0.3c0.1-0.1,0.1-0.3,0.2-0.4L59.5,41.5C59.5,41.5,59.5,41.5,59.5,41.5z"/>
					<linearGradient id="SVGID_46_" gradientUnits="userSpaceOnUse" x1="7.7199" y1="66.7133" x2="61.4148" y2="21.9373">
						<stop  offset="5.025130e-02" style="stop-color:#FFFFFF"/>
						<stop  offset="0.1201" style="stop-color:#939393"/>
						<stop  offset="0.2441" style="stop-color:#F6F6F6"/>
						<stop  offset="0.5894" style="stop-color:#EEEEEE"/>
						<stop  offset="1" style="stop-color:#666666"/>
					</linearGradient>
					<linearGradient id="SVGID_47_" gradientUnits="userSpaceOnUse" x1="43.8433" y1="34.2076" x2="53.3589" y2="34.2076">
						<stop  offset="5.025130e-02" style="stop-color:#FFFFFF"/>
						<stop  offset="0.1201" style="stop-color:#939393"/>
						<stop  offset="0.2441" style="stop-color:#F6F6F6"/>
						<stop  offset="0.5894" style="stop-color:#EEEEEE"/>
						<stop  offset="1" style="stop-color:#666666"/>
					</linearGradient>
					<path class="st41" d="M44.3,30.8c0.7,2,1.1,4,1.2,6.1c0,0.3,0,0.6,0,0.8c1.4,0,2.7,0.5,3.7,1.4c0,0,0,0,0,0
						c1.3-1.7,2.5-3.5,3.4-5.4c0.2-0.4,0.4-0.9,0.6-1.3c0.2-0.4,0.1-0.8-0.3-1c-1.1-0.7-2.2-1.2-3.5-1.5c-1.2-0.3-2.3-0.5-3.5-0.5
						c0,0,0,0-0.1,0h-0.7c0,0-0.1,0-0.1,0c-0.3,0-0.5,0-0.8,0c-0.3,0-0.4,0.2-0.4,0.5c0,0.1,0,0.2,0.1,0.2
						C44.1,30.3,44.2,30.5,44.3,30.8z"/>
					<linearGradient id="SVGID_48_" gradientUnits="userSpaceOnUse" x1="7.0704" y1="65.9345" x2="60.7653" y2="21.1585">
						<stop  offset="5.025130e-02" style="stop-color:#FFFFFF"/>
						<stop  offset="0.1201" style="stop-color:#939393"/>
						<stop  offset="0.2441" style="stop-color:#F6F6F6"/>
						<stop  offset="0.5894" style="stop-color:#EEEEEE"/>
						<stop  offset="1" style="stop-color:#666666"/>
					</linearGradient>
					<linearGradient id="SVGID_49_" gradientUnits="userSpaceOnUse" x1="31.3867" y1="43.2101" x2="40.6323" y2="43.2101">
						<stop  offset="5.025130e-02" style="stop-color:#FFFFFF"/>
						<stop  offset="0.1201" style="stop-color:#939393"/>
						<stop  offset="0.2441" style="stop-color:#F6F6F6"/>
						<stop  offset="0.5894" style="stop-color:#EEEEEE"/>
						<stop  offset="1" style="stop-color:#666666"/>
					</linearGradient>
					<path class="st42" d="M40.1,44.7c-0.1-0.4-0.2-0.9-0.2-1.3c0-0.9,0.2-1.8,0.6-2.6c-1.2-0.5-2.4-1-3.6-1.4
						c-1.2-0.4-2.5-0.7-3.8-0.9c-0.5-0.1-0.8,0.1-1,0.5c-0.4,1.1-0.6,2.3-0.7,3.5c0,0.2,0,0.4,0,0.6v0.8c0,0,0,0.1,0,0.1
						c0,0.3,0,0.6,0.1,0.9c0.1,0.9,0.3,1.8,0.5,2.7c0,0.1,0.1,0.2,0.1,0.3c0.1,0.2,0.3,0.3,0.5,0.2c0.1,0,0.2-0.1,0.3-0.2
						c0.7-0.5,1.4-1,2.2-1.3C36.8,45.7,38.4,45.1,40.1,44.7z"/>
					<linearGradient id="SVGID_50_" gradientUnits="userSpaceOnUse" x1="17.6522" y1="78.6239" x2="71.347" y2="33.8479">
						<stop  offset="5.025130e-02" style="stop-color:#FFFFFF"/>
						<stop  offset="0.1201" style="stop-color:#939393"/>
						<stop  offset="0.2441" style="stop-color:#F6F6F6"/>
						<stop  offset="0.5894" style="stop-color:#EEEEEE"/>
						<stop  offset="1" style="stop-color:#666666"/>
					</linearGradient>
					<linearGradient id="SVGID_51_" gradientUnits="userSpaceOnUse" x1="48.7514" y1="49.0064" x2="59.5805" y2="49.0064">
						<stop  offset="5.025130e-02" style="stop-color:#FFFFFF"/>
						<stop  offset="0.1201" style="stop-color:#939393"/>
						<stop  offset="0.2441" style="stop-color:#F6F6F6"/>
						<stop  offset="0.5894" style="stop-color:#EEEEEE"/>
						<stop  offset="1" style="stop-color:#666666"/>
					</linearGradient>
					<path class="st43" d="M59.1,44.8c-0.1,0-0.2,0-0.2,0c-0.8,0.2-1.6,0.2-2.3,0.3c-1,0-2,0-3-0.1c-0.9-0.1-1.7-0.2-2.5-0.4
						c-0.3,1.3-1.1,2.5-2.1,3.3c0.7,0.8,1.4,1.7,2.2,2.4c0.8,0.8,1.7,1.6,2.7,2.3c0.3,0.3,0.7,0.5,1,0.7c0.3,0.2,0.7,0.1,0.9-0.1
						c0.5-0.5,1-1.1,1.4-1.7c1.1-1.6,1.9-3.3,2.3-5.2c0.1-0.4,0.1-0.7,0.2-1C59.5,44.9,59.4,44.8,59.1,44.8z"/>
					<linearGradient id="SVGID_52_" gradientUnits="userSpaceOnUse" x1="17.2373" y1="78.1264" x2="70.9321" y2="33.3504">
						<stop  offset="5.025130e-02" style="stop-color:#FFFFFF"/>
						<stop  offset="0.1201" style="stop-color:#939393"/>
						<stop  offset="0.2441" style="stop-color:#F6F6F6"/>
						<stop  offset="0.5894" style="stop-color:#EEEEEE"/>
						<stop  offset="1" style="stop-color:#666666"/>
					</linearGradient>
					<linearGradient id="SVGID_53_" gradientUnits="userSpaceOnUse" x1="43.3157" y1="52.8971" x2="53.0633" y2="52.8971">
						<stop  offset="5.025130e-02" style="stop-color:#FFFFFF"/>
						<stop  offset="0.1201" style="stop-color:#939393"/>
						<stop  offset="0.2441" style="stop-color:#F6F6F6"/>
						<stop  offset="0.5894" style="stop-color:#EEEEEE"/>
						<stop  offset="1" style="stop-color:#666666"/>
					</linearGradient>
					<path class="st44" d="M52.6,54.6c-0.7-0.6-1.3-1.2-1.9-1.9c-1.1-1.3-2-2.8-2.8-4.3c-0.7,0.4-1.6,0.6-2.5,0.6
						c-0.5,0-1-0.1-1.4-0.2c-0.2,0.9-0.3,1.8-0.5,2.7c-0.1,1.2-0.2,2.3-0.2,3.5c0,0.1,0,0.1,0,0.2c0,0.5,0,1,0,1.5
						c0,0.4,0.3,0.7,0.7,0.7c0.2,0,0.4,0,0.6,0c1.2,0.1,2.4,0,3.6-0.3c1.3-0.3,2.6-0.7,3.8-1.3c0.2-0.1,0.5-0.2,0.7-0.4
						c0.3-0.2,0.3-0.4,0.1-0.7C52.8,54.7,52.7,54.6,52.6,54.6z"/>
					<linearGradient id="SVGID_54_" gradientUnits="userSpaceOnUse" x1="5.6584" y1="64.2412" x2="59.3533" y2="19.4652">
						<stop  offset="5.025130e-02" style="stop-color:#FFFFFF"/>
						<stop  offset="0.1201" style="stop-color:#939393"/>
						<stop  offset="0.2441" style="stop-color:#F6F6F6"/>
						<stop  offset="0.5894" style="stop-color:#EEEEEE"/>
						<stop  offset="1" style="stop-color:#666666"/>
					</linearGradient>
					<linearGradient id="SVGID_55_" gradientUnits="userSpaceOnUse" x1="33.6377" y1="34.9664" x2="44.586" y2="34.9664">
						<stop  offset="5.025130e-02" style="stop-color:#FFFFFF"/>
						<stop  offset="0.1201" style="stop-color:#939393"/>
						<stop  offset="0.2441" style="stop-color:#F6F6F6"/>
						<stop  offset="0.5894" style="stop-color:#EEEEEE"/>
						<stop  offset="1" style="stop-color:#666666"/>
					</linearGradient>
					<path class="st45" d="M33.9,36.1c0.1,0.1,0.2,0.1,0.3,0.1c0.8,0.2,1.5,0.5,2.2,0.8c1.7,0.7,3.2,1.7,4.7,2.8c0.8-1,2-1.8,3.4-2
						c0-0.1-0.1-0.3-0.1-0.4c-0.4-1.8-1-3.5-1.8-5.1c-0.3-0.6-0.6-1.2-0.9-1.8c-0.2-0.4-0.6-0.5-1-0.4c-1.4,0.5-2.6,1.2-3.8,2.1
						c-1.2,0.9-2.2,2-3,3.3c0,0.1-0.1,0.2-0.1,0.2C33.7,35.9,33.7,36.1,33.9,36.1z"/>
					<linearGradient id="SVGID_56_" gradientUnits="userSpaceOnUse" x1="13.2769" y1="73.3772" x2="66.9717" y2="28.6012">
						<stop  offset="5.025130e-02" style="stop-color:#FFFFFF"/>
						<stop  offset="0.1201" style="stop-color:#939393"/>
						<stop  offset="0.2441" style="stop-color:#F6F6F6"/>
						<stop  offset="0.5894" style="stop-color:#EEEEEE"/>
						<stop  offset="1" style="stop-color:#666666"/>
					</linearGradient>
					<linearGradient id="SVGID_57_" gradientUnits="userSpaceOnUse" x1="33.5103" y1="51.0961" x2="43.2283" y2="51.0961">
						<stop  offset="5.025130e-02" style="stop-color:#FFFFFF"/>
						<stop  offset="0.1201" style="stop-color:#939393"/>
						<stop  offset="0.2441" style="stop-color:#F6F6F6"/>
						<stop  offset="0.5894" style="stop-color:#EEEEEE"/>
						<stop  offset="1" style="stop-color:#666666"/>
					</linearGradient>
					<path class="st46" d="M40.4,45.6c-0.1,0-0.1,0.1-0.2,0.1c-1.5,0.7-2.9,1.6-4.2,2.5c-0.7,0.5-1.5,1.1-2.2,1.7
						c-0.3,0.3-0.4,0.7-0.1,1.1c0.7,1.1,1.5,2,2.5,2.9c1.3,1.1,2.7,2,4.3,2.6c0.1,0,0.2,0,0.2,0.1c0.2,0,0.3-0.1,0.4-0.3
						c0-0.1,0-0.2,0.1-0.3c0-0.8,0.1-1.5,0.2-2.2c0.4-1.8,0.9-3.6,1.7-5.3C41.9,47.9,40.9,46.9,40.4,45.6z"/>
					<linearGradient id="SVGID_58_" gradientUnits="userSpaceOnUse" x1="59.6973" y1="29.3811" x2="41.0336" y2="47.7466">
						<stop  offset="0" style="stop-color:#1F4206"/>
						<stop  offset="1" style="stop-color:#C2FF0A"/>
					</linearGradient>
					<circle class="st47" cx="45.5" cy="43.3" r="4.4"/>
				</g>
			</g>
		</g>
	</g>
	<linearGradient id="SVGID_59_" gradientUnits="userSpaceOnUse" x1="35.7812" y1="93.3603" x2="35.7812" y2="124.348">
		<stop  offset="5.025130e-02" style="stop-color:#FFFFFF"/>
		<stop  offset="0.1201" style="stop-color:#939393"/>
		<stop  offset="0.2441" style="stop-color:#F6F6F6"/>
		<stop  offset="0.5894" style="stop-color:#EEEEEE"/>
		<stop  offset="1" style="stop-color:#666666"/>
	</linearGradient>
	<path class="st48" d="M19.2,125l5.2-5.8h16.1c0.8,0,1.3-0.2,1.6-0.5c0.3-0.3,0.5-0.6,0.6-1c0.1-0.4,0-0.7-0.1-1
		c-0.3-0.5-1-0.6-1.5-0.6H29.2c-0.7,0-1.4-0.1-2-0.3c-0.6-0.2-1.1-0.5-1.4-1c-0.4-0.4-0.6-0.9-0.7-1.4c-0.1-0.6-0.1-1.2,0.1-1.9
		l0.9-3.8c0.2-0.8,0.5-1.5,0.9-2.2c0.4-0.7,1-1.3,1.6-1.7c0.6-0.5,1.3-0.9,2-1.1c0.7-0.3,1.5-0.4,2.2-0.4h19.7l-5.2,5.8H35.2
		c-0.7,0-1.3,0.1-1.6,0.4c-0.3,0.3-0.5,0.6-0.6,1c-0.1,0.4,0,0.7,0.1,1c0.3,0.6,1,0.6,1.5,0.6h11.9c1,0,1.8,0.1,2.4,0.4
		c0.6,0.3,1,0.6,1.3,1.1c0.3,0.5,0.5,1,0.5,1.7c0,0.7,0,1.5-0.2,2.3l-0.7,2.7c-0.2,0.7-0.4,1.4-0.8,2.1c-0.4,0.7-0.9,1.3-1.4,1.8
		c-0.6,0.5-1.2,1-2,1.3c-0.8,0.3-1.6,0.5-2.6,0.5H19.2z"/>
	<linearGradient id="SVGID_60_" gradientUnits="userSpaceOnUse" x1="207.6352" y1="93.3603" x2="207.6352" y2="124.348">
		<stop  offset="5.025130e-02" style="stop-color:#FFFFFF"/>
		<stop  offset="0.1201" style="stop-color:#939393"/>
		<stop  offset="0.2441" style="stop-color:#F6F6F6"/>
		<stop  offset="0.5894" style="stop-color:#EEEEEE"/>
		<stop  offset="1" style="stop-color:#666666"/>
	</linearGradient>
	<path class="st49" d="M191.1,125l5.2-5.8h16.1c0.8,0,1.3-0.2,1.6-0.5c0.3-0.3,0.5-0.6,0.6-1c0.1-0.4,0-0.7-0.1-1
		c-0.3-0.5-1-0.6-1.5-0.6H201c-0.7,0-1.4-0.1-2-0.3c-0.6-0.2-1.1-0.5-1.4-1c-0.4-0.4-0.6-0.9-0.7-1.4c-0.1-0.6-0.1-1.2,0.1-1.9
		l0.9-3.8c0.2-0.8,0.5-1.5,0.9-2.2c0.4-0.7,1-1.3,1.6-1.7c0.6-0.5,1.3-0.9,2-1.1c0.7-0.3,1.5-0.4,2.2-0.4h19.7l-5.2,5.8h-11.9
		c-0.7,0-1.3,0.1-1.6,0.4c-0.3,0.3-0.5,0.6-0.6,1c-0.1,0.4,0,0.7,0.1,1c0.3,0.6,1,0.6,1.5,0.6h11.9c1,0,1.7,0.1,2.4,0.4
		c0.6,0.3,1,0.6,1.3,1.1c0.3,0.5,0.5,1,0.5,1.7c0,0.7,0,1.5-0.2,2.3l-0.7,2.7c-0.2,0.7-0.4,1.4-0.8,2.1c-0.4,0.7-0.9,1.3-1.4,1.8
		c-0.6,0.5-1.2,1-2,1.3c-0.8,0.3-1.6,0.5-2.6,0.5H191.1z"/>
	<linearGradient id="SVGID_61_" gradientUnits="userSpaceOnUse" x1="68.3391" y1="93.3603" x2="68.3391" y2="124.348">
		<stop  offset="5.025130e-02" style="stop-color:#FFFFFF"/>
		<stop  offset="0.1201" style="stop-color:#939393"/>
		<stop  offset="0.2441" style="stop-color:#F6F6F6"/>
		<stop  offset="0.5894" style="stop-color:#EEEEEE"/>
		<stop  offset="1" style="stop-color:#666666"/>
	</linearGradient>
	<path class="st50" d="M52.3,125l15.6-21.8c0.4-0.6,1.1-1,1.8-1h7c0.8,0,1.6,0.6,1.8,1.5l5.9,21.4h-7.2l-1.1-4.2l-3.6-13.9
		l-9.4,13.9h11.5l-2.8,4.2H60.3l-0.1,0H52.3z"/>
	<linearGradient id="SVGID_62_" gradientUnits="userSpaceOnUse" x1="99.7763" y1="93.3603" x2="99.7763" y2="124.348">
		<stop  offset="5.025130e-02" style="stop-color:#FFFFFF"/>
		<stop  offset="0.1201" style="stop-color:#939393"/>
		<stop  offset="0.2441" style="stop-color:#F6F6F6"/>
		<stop  offset="0.5894" style="stop-color:#EEEEEE"/>
		<stop  offset="1" style="stop-color:#666666"/>
	</linearGradient>
	<path class="st51" d="M92.3,125c-1.3,0-2.3-0.8-2.7-2.2l-5.8-20.7h7.5l4.5,17.2l12.1-17.2h7.9L99.3,125H92.3z"/>
	<linearGradient id="SVGID_63_" gradientUnits="userSpaceOnUse" x1="121.1174" y1="93.3603" x2="121.1174" y2="124.348">
		<stop  offset="5.025130e-02" style="stop-color:#FFFFFF"/>
		<stop  offset="0.1201" style="stop-color:#939393"/>
		<stop  offset="0.2441" style="stop-color:#F6F6F6"/>
		<stop  offset="0.5894" style="stop-color:#EEEEEE"/>
		<stop  offset="1" style="stop-color:#666666"/>
	</linearGradient>
	<polygon class="st52" points="114.5,125 119.9,102.2 127.8,102.2 122.4,125 	"/>
	<linearGradient id="SVGID_64_" gradientUnits="userSpaceOnUse" x1="143.6636" y1="93.3603" x2="143.6636" y2="124.348">
		<stop  offset="5.025130e-02" style="stop-color:#FFFFFF"/>
		<stop  offset="0.1201" style="stop-color:#939393"/>
		<stop  offset="0.2441" style="stop-color:#F6F6F6"/>
		<stop  offset="0.5894" style="stop-color:#EEEEEE"/>
		<stop  offset="1" style="stop-color:#666666"/>
	</linearGradient>
	<path class="st53" d="M133.9,125c-0.9,0-1.7-0.2-2.4-0.5c-0.7-0.3-1.2-0.8-1.7-1.4c-0.4-0.6-0.7-1.3-0.9-2.1
		c-0.1-0.8-0.1-1.7,0.1-2.6l2.2-9.2c0.2-0.9,0.6-1.8,1.2-2.7c0.5-0.8,1.2-1.6,2-2.2c0.8-0.6,1.6-1.1,2.5-1.5
		c0.9-0.4,1.8-0.5,2.6-0.5h14c0.9,0,1.7,0.2,2.3,0.5c0.7,0.3,1.2,0.8,1.7,1.4c0.4,0.6,0.7,1.3,0.9,2.1c0.1,0.8,0.1,1.7-0.1,2.6
		l-2.2,9.2c-0.2,1-0.6,1.9-1.2,2.7c-0.5,0.8-1.2,1.6-1.9,2.2c-0.7,0.6-1.6,1.1-2.4,1.5c-0.9,0.4-1.8,0.5-2.6,0.5H133.9z
		 M141.1,107.3c-0.8,0-1.6,0.3-2.3,0.9c-0.7,0.6-1.2,1.3-1.4,2.2l-1.5,6.2c-0.2,0.9-0.1,1.7,0.4,2.3c0.5,0.7,1.2,1,2,1.1l7.9,0
		c0.9,0,1.6-0.4,2.4-1c0.7-0.6,1.2-1.3,1.4-2.2l1.5-6.2c0.2-0.9,0.1-1.7-0.4-2.3c-0.5-0.7-1.2-1-2.1-1H141.1z"/>
	<linearGradient id="SVGID_65_" gradientUnits="userSpaceOnUse" x1="174.7109" y1="93.3603" x2="174.7109" y2="124.348">
		<stop  offset="5.025130e-02" style="stop-color:#FFFFFF"/>
		<stop  offset="0.1201" style="stop-color:#939393"/>
		<stop  offset="0.2441" style="stop-color:#F6F6F6"/>
		<stop  offset="0.5894" style="stop-color:#EEEEEE"/>
		<stop  offset="1" style="stop-color:#666666"/>
	</linearGradient>
	<path class="st54" d="M178,125l1-4.1c0.1-0.6,0-1.2-0.3-1.6c-0.3-0.5-0.8-0.7-1.4-0.7h-8.6l-1.5,6.4h-7.9l5.4-22.8H186
		c0.7,0,1.4,0.1,2,0.4c0.6,0.2,1,0.6,1.4,1c0.4,0.4,0.6,1,0.7,1.6c0.1,0.6,0.1,1.3-0.1,2.1l-0.8,3.4c-0.1,0.4-0.3,0.8-0.5,1.2
		c-0.2,0.4-0.5,0.8-0.8,1.2c-0.3,0.4-0.7,0.7-1.1,0.9c-0.4,0.2-0.7,0.4-1.1,0.5l0,0.9c0.7,0.1,1.2,0.5,1.5,1.1
		c0.3,0.6,0.4,1.3,0.2,2.1l-1.5,6.5H178z M168.9,117.3l5-4.6h4.9c0.6,0,1.1-0.2,1.6-0.5c0.5-0.3,0.8-0.8,1-1.4l0.1-0.4
		c0.2-0.8,0-1.3-0.3-1.6c-0.4-0.4-0.8-0.6-1.4-0.6h-8.6L168.9,117.3z"/>
</g>
</svg>
